<mxfile host="65bd71144e">
    <diagram id="innCYwXkVPQivFGjWdCb" name="Page-1">
        <mxGraphModel dx="2500" dy="1617" grid="1" gridSize="10" guides="1" tooltips="1" connect="1" arrows="1" fold="1" page="1" pageScale="1" pageWidth="850" pageHeight="1100" math="0" shadow="0">
            <root>
                <mxCell id="0"/>
                <mxCell id="1" parent="0"/>
                <mxCell id="5" value="" style="edgeStyle=none;html=1;" parent="1" source="3" target="4" edge="1">
                    <mxGeometry relative="1" as="geometry"/>
                </mxCell>
                <mxCell id="3" value="User Enters the Website" style="whiteSpace=wrap;html=1;rounded=1;fillColor=#fa6800;fontColor=#000000;strokeColor=#C73500;" parent="1" vertex="1">
                    <mxGeometry x="270" y="125" width="120" height="60" as="geometry"/>
                </mxCell>
                <mxCell id="13" style="edgeStyle=none;html=1;exitX=0;exitY=0.5;exitDx=0;exitDy=0;" edge="1" parent="1" source="4">
                    <mxGeometry relative="1" as="geometry">
                        <mxPoint x="110" y="325" as="targetPoint"/>
                    </mxGeometry>
                </mxCell>
                <mxCell id="16" value="" style="edgeStyle=none;html=1;" edge="1" parent="1" source="4" target="15">
                    <mxGeometry relative="1" as="geometry"/>
                </mxCell>
                <mxCell id="4" value="&lt;div style=&quot;&quot;&gt;&lt;span style=&quot;background-color: initial;&quot;&gt;&lt;font color=&quot;#ffffff&quot; style=&quot;font-size: 14px;&quot;&gt;UD: Search for Specific Product?&lt;/font&gt;&lt;/span&gt;&lt;/div&gt;" style="rhombus;whiteSpace=wrap;html=1;rounded=1;arcSize=13;align=center;" parent="1" vertex="1">
                    <mxGeometry x="245.32" y="240" width="169.37" height="170" as="geometry"/>
                </mxCell>
                <mxCell id="10" value="Yes" style="text;html=1;strokeColor=none;fillColor=none;align=center;verticalAlign=middle;whiteSpace=wrap;rounded=0;fontSize=14;fontColor=#FFFFFF;" parent="1" vertex="1">
                    <mxGeometry x="150" y="280" width="60" height="30" as="geometry"/>
                </mxCell>
                <mxCell id="12" style="edgeStyle=none;html=1;entryX=0.5;entryY=0;entryDx=0;entryDy=0;fontSize=14;fontColor=#000000;" parent="1" source="11" target="3" edge="1">
                    <mxGeometry relative="1" as="geometry"/>
                </mxCell>
                <mxCell id="11" value="Start" style="ellipse;whiteSpace=wrap;html=1;rounded=1;fontSize=14;fillColor=#ffff88;strokeColor=#36393d;labelBorderColor=none;fontColor=#000000;" parent="1" vertex="1">
                    <mxGeometry x="270" y="10" width="120" height="60" as="geometry"/>
                </mxCell>
                <mxCell id="18" value="" style="edgeStyle=none;html=1;fontColor=#FF6666;" edge="1" parent="1" source="14" target="17">
                    <mxGeometry relative="1" as="geometry"/>
                </mxCell>
                <mxCell id="14" value="Search Query" style="shape=parallelogram;perimeter=parallelogramPerimeter;whiteSpace=wrap;html=1;fixedSize=1;fillColor=#008a00;fontColor=#ffffff;strokeColor=#005700;" vertex="1" parent="1">
                    <mxGeometry y="295" width="120" height="60" as="geometry"/>
                </mxCell>
                <mxCell id="20" style="edgeStyle=none;html=1;exitX=0.5;exitY=1;exitDx=0;exitDy=0;fontColor=#FF6666;" edge="1" parent="1" source="15">
                    <mxGeometry relative="1" as="geometry">
                        <mxPoint x="240" y="720" as="targetPoint"/>
                    </mxGeometry>
                </mxCell>
                <mxCell id="15" value="Home Page" style="whiteSpace=wrap;html=1;rounded=1;arcSize=13;fillColor=#e51400;fontColor=#ffffff;strokeColor=#B20000;" vertex="1" parent="1">
                    <mxGeometry x="270.005" y="545" width="120" height="60" as="geometry"/>
                </mxCell>
                <mxCell id="19" style="edgeStyle=none;html=1;exitX=0.5;exitY=1;exitDx=0;exitDy=0;fontColor=#FF6666;" edge="1" parent="1" source="17">
                    <mxGeometry relative="1" as="geometry">
                        <mxPoint x="150" y="720" as="targetPoint"/>
                    </mxGeometry>
                </mxCell>
                <mxCell id="17" value="Search Query Yielded Page" style="whiteSpace=wrap;html=1;fillColor=#008a00;strokeColor=#005700;fontColor=#ffffff;" vertex="1" parent="1">
                    <mxGeometry y="545" width="120" height="60" as="geometry"/>
                </mxCell>
                <mxCell id="26" style="edgeStyle=none;html=1;exitX=0;exitY=0.5;exitDx=0;exitDy=0;fontColor=#FFFFFF;entryX=1;entryY=0.5;entryDx=0;entryDy=0;" edge="1" parent="1" source="21" target="37">
                    <mxGeometry relative="1" as="geometry">
                        <mxPoint x="50" y="755" as="targetPoint"/>
                    </mxGeometry>
                </mxCell>
                <mxCell id="55" style="edgeStyle=none;html=1;entryX=1;entryY=0.5;entryDx=0;entryDy=0;fontColor=#FFFFFF;" edge="1" parent="1" source="21" target="38">
                    <mxGeometry relative="1" as="geometry"/>
                </mxCell>
                <mxCell id="21" value="&lt;font color=&quot;#ffffff&quot;&gt;UD: Viewing a Specific Product&lt;/font&gt;" style="rhombus;whiteSpace=wrap;html=1;fontColor=#FF6666;" vertex="1" parent="1">
                    <mxGeometry x="130" y="690" width="130" height="130" as="geometry"/>
                </mxCell>
                <mxCell id="22" value="No" style="text;html=1;strokeColor=none;fillColor=none;align=center;verticalAlign=middle;whiteSpace=wrap;rounded=0;fontColor=#FFFFFF;" vertex="1" parent="1">
                    <mxGeometry x="365" y="460" width="60" height="30" as="geometry"/>
                </mxCell>
                <mxCell id="27" value="Yes" style="text;html=1;strokeColor=none;fillColor=none;align=center;verticalAlign=middle;whiteSpace=wrap;rounded=0;fontColor=#FFFFFF;" vertex="1" parent="1">
                    <mxGeometry x="70" y="720" width="60" height="30" as="geometry"/>
                </mxCell>
                <mxCell id="35" value="" style="endArrow=classic;html=1;fontColor=#FFFFFF;exitX=0.5;exitY=1;exitDx=0;exitDy=0;" edge="1" parent="1" source="21">
                    <mxGeometry relative="1" as="geometry">
                        <mxPoint x="260" y="930" as="sourcePoint"/>
                        <mxPoint x="-240" y="920" as="targetPoint"/>
                        <Array as="points">
                            <mxPoint x="195" y="920"/>
                        </Array>
                    </mxGeometry>
                </mxCell>
                <mxCell id="36" value="No" style="edgeLabel;resizable=0;html=1;align=center;verticalAlign=middle;fontColor=#FFFFFF;" connectable="0" vertex="1" parent="35">
                    <mxGeometry relative="1" as="geometry">
                        <mxPoint x="-82" as="offset"/>
                    </mxGeometry>
                </mxCell>
                <mxCell id="39" style="edgeStyle=none;html=1;entryX=1;entryY=0.5;entryDx=0;entryDy=0;fontColor=#FFFFFF;" edge="1" parent="1" source="37" target="38">
                    <mxGeometry relative="1" as="geometry"/>
                </mxCell>
                <mxCell id="37" value="Product Page on Website(Seperate Page)" style="rounded=0;whiteSpace=wrap;html=1;fontColor=#ffffff;fillColor=#647687;strokeColor=#314354;" vertex="1" parent="1">
                    <mxGeometry x="-90" y="650" width="120" height="60" as="geometry"/>
                </mxCell>
                <mxCell id="38" value="UD: Add to Cart" style="rhombus;whiteSpace=wrap;html=1;rounded=0;" vertex="1" parent="1">
                    <mxGeometry x="-300" y="697.5" width="130" height="115" as="geometry"/>
                </mxCell>
                <mxCell id="56" style="edgeStyle=none;html=1;fontColor=#FFFFFF;entryX=0;entryY=0.5;entryDx=0;entryDy=0;" edge="1" parent="1" source="40" target="50">
                    <mxGeometry relative="1" as="geometry">
                        <mxPoint x="-300" y="1180" as="targetPoint"/>
                        <Array as="points">
                            <mxPoint x="-440" y="1180"/>
                        </Array>
                    </mxGeometry>
                </mxCell>
                <mxCell id="40" value="Added to Cart Confirmation Page" style="whiteSpace=wrap;html=1;rounded=0;fillColor=#f0a30a;fontColor=#000000;strokeColor=#BD7000;" vertex="1" parent="1">
                    <mxGeometry x="-505" y="725" width="120" height="60" as="geometry"/>
                </mxCell>
                <mxCell id="42" value="" style="endArrow=classic;html=1;fontColor=#FFFFFF;exitX=0;exitY=0.5;exitDx=0;exitDy=0;entryX=1;entryY=0.5;entryDx=0;entryDy=0;" edge="1" parent="1" source="38" target="40">
                    <mxGeometry relative="1" as="geometry">
                        <mxPoint x="-370" y="780" as="sourcePoint"/>
                        <mxPoint x="-270" y="780" as="targetPoint"/>
                    </mxGeometry>
                </mxCell>
                <mxCell id="43" value="Yes" style="edgeLabel;resizable=0;html=1;align=center;verticalAlign=middle;fontColor=#FFFFFF;" connectable="0" vertex="1" parent="42">
                    <mxGeometry relative="1" as="geometry"/>
                </mxCell>
                <mxCell id="47" value="" style="endArrow=classic;html=1;fontColor=#FFFFFF;exitX=0.5;exitY=1;exitDx=0;exitDy=0;" edge="1" parent="1" source="38">
                    <mxGeometry relative="1" as="geometry">
                        <mxPoint x="-240" y="810" as="sourcePoint"/>
                        <mxPoint x="-235" y="1150" as="targetPoint"/>
                    </mxGeometry>
                </mxCell>
                <mxCell id="48" value="No" style="edgeLabel;resizable=0;html=1;align=center;verticalAlign=middle;fontColor=#FFFFFF;" connectable="0" vertex="1" parent="47">
                    <mxGeometry relative="1" as="geometry"/>
                </mxCell>
                <mxCell id="52" value="" style="edgeStyle=none;html=1;fontColor=#FFFFFF;" edge="1" parent="1" source="50" target="51">
                    <mxGeometry relative="1" as="geometry"/>
                </mxCell>
                <mxCell id="50" value="Continue Shopping Page" style="rounded=0;whiteSpace=wrap;html=1;fillColor=#d80073;strokeColor=#A50040;fontColor=#ffffff;gradientColor=none;" vertex="1" parent="1">
                    <mxGeometry x="-295" y="1150" width="120" height="60" as="geometry"/>
                </mxCell>
                <mxCell id="61" value="No" style="edgeStyle=none;fontSize=18;fontColor=#FFFFFF;" edge="1" parent="1" source="51" target="60">
                    <mxGeometry relative="1" as="geometry"/>
                </mxCell>
                <mxCell id="51" value="UD: Continue Shopping?" style="rhombus;whiteSpace=wrap;html=1;fillColor=#d80073;strokeColor=#A50040;fontColor=#ffffff;rounded=0;gradientColor=none;" vertex="1" parent="1">
                    <mxGeometry x="-330" y="1280" width="190" height="180" as="geometry"/>
                </mxCell>
                <mxCell id="57" value="" style="endArrow=classic;html=1;fontColor=#FFFFFF;entryX=1;entryY=0.5;entryDx=0;entryDy=0;exitX=1;exitY=0.5;exitDx=0;exitDy=0;" edge="1" parent="1" source="51" target="4">
                    <mxGeometry relative="1" as="geometry">
                        <mxPoint x="-230" y="1460" as="sourcePoint"/>
                        <mxPoint x="500" y="201.53846153846155" as="targetPoint"/>
                        <Array as="points">
                            <mxPoint x="510" y="1370"/>
                            <mxPoint x="500" y="325"/>
                        </Array>
                    </mxGeometry>
                </mxCell>
                <mxCell id="58" value="Yes" style="edgeLabel;resizable=0;html=1;align=center;verticalAlign=middle;fontColor=#FFFFFF;gradientColor=none;fontSize=40;" connectable="0" vertex="1" parent="57">
                    <mxGeometry relative="1" as="geometry"/>
                </mxCell>
                <mxCell id="63" value="" style="edgeStyle=none;html=1;fontSize=40;fontColor=#FFFFFF;" edge="1" parent="1" source="60" target="62">
                    <mxGeometry relative="1" as="geometry"/>
                </mxCell>
                <mxCell id="60" value="Continue to Checkout Page" style="whiteSpace=wrap;html=1;fillColor=#d80073;strokeColor=#A50040;fontColor=#ffffff;rounded=0;gradientColor=none;" vertex="1" parent="1">
                    <mxGeometry x="-295" y="1600" width="120" height="60" as="geometry"/>
                </mxCell>
                <mxCell id="70" value="" style="edgeStyle=none;html=0;fontSize=18;fontColor=#FFFFFF;" edge="1" parent="1" source="62" target="69">
                    <mxGeometry relative="1" as="geometry"/>
                </mxCell>
                <mxCell id="62" value="UD: Continue to Checkout?" style="rhombus;whiteSpace=wrap;html=1;fillColor=#d80073;strokeColor=#A50040;fontColor=#ffffff;rounded=0;gradientColor=none;" vertex="1" parent="1">
                    <mxGeometry x="-312.5" y="1730" width="155" height="160" as="geometry"/>
                </mxCell>
                <mxCell id="64" value="Yes" style="endArrow=classic;fontSize=18;fontColor=#FFFFFF;" edge="1" parent="1">
                    <mxGeometry relative="1" as="geometry">
                        <mxPoint x="-160" y="1810" as="sourcePoint"/>
                        <mxPoint x="80" y="1810" as="targetPoint"/>
                    </mxGeometry>
                </mxCell>
                <mxCell id="66" value="Checkout Flow" style="text;html=1;align=center;verticalAlign=middle;resizable=0;points=[];autosize=1;strokeColor=none;fillColor=none;fontSize=18;fontColor=#FFFFFF;" vertex="1" parent="1">
                    <mxGeometry x="-50" y="1670" width="140" height="40" as="geometry"/>
                </mxCell>
                <mxCell id="67" value="CART Flow" style="text;strokeColor=none;align=center;fillColor=none;html=1;verticalAlign=middle;whiteSpace=wrap;rounded=0;fontSize=18;fontColor=#FFFFFF;" vertex="1" parent="1">
                    <mxGeometry x="-430" y="590" width="60" height="30" as="geometry"/>
                </mxCell>
                <mxCell id="68" value="Website Flow" style="text;html=1;align=center;verticalAlign=middle;resizable=0;points=[];autosize=1;strokeColor=none;fillColor=none;fontSize=18;fontColor=#FFFFFF;" vertex="1" parent="1">
                    <mxGeometry x="525" y="220" width="130" height="40" as="geometry"/>
                </mxCell>
                <mxCell id="83" style="edgeStyle=none;html=0;entryX=0.5;entryY=0;entryDx=0;entryDy=0;fontSize=12;fontColor=#000000;" edge="1" parent="1" source="69" target="82">
                    <mxGeometry relative="1" as="geometry"/>
                </mxCell>
                <mxCell id="69" value="User Leaves Website" style="whiteSpace=wrap;html=1;fillColor=#fa6800;strokeColor=#C73500;rounded=0;fontColor=#000000;" vertex="1" parent="1">
                    <mxGeometry x="-295" y="2420" width="120" height="60" as="geometry"/>
                </mxCell>
                <mxCell id="73" value="" style="edgeStyle=none;html=0;fontSize=18;fontColor=#FFFFFF;" edge="1" parent="1" source="71" target="72">
                    <mxGeometry relative="1" as="geometry"/>
                </mxCell>
                <mxCell id="71" value="View Cart Screen" style="rounded=0;whiteSpace=wrap;html=1;fontSize=18;fontColor=#ffffff;fillColor=#6d8764;strokeColor=#3A5431;" vertex="1" parent="1">
                    <mxGeometry x="80" y="1780" width="120" height="60" as="geometry"/>
                </mxCell>
                <mxCell id="75" style="edgeStyle=none;html=0;entryX=0;entryY=0.5;entryDx=0;entryDy=0;fontSize=18;fontColor=#FFFFFF;" edge="1" parent="1" source="72" target="74">
                    <mxGeometry relative="1" as="geometry"/>
                </mxCell>
                <mxCell id="72" value="View Payment" style="whiteSpace=wrap;html=1;fontSize=18;fillColor=#6d8764;strokeColor=#3A5431;fontColor=#ffffff;rounded=0;" vertex="1" parent="1">
                    <mxGeometry x="280" y="1780" width="120" height="60" as="geometry"/>
                </mxCell>
                <mxCell id="77" value="" style="edgeStyle=none;html=0;fontSize=12;fontColor=#FFFFFF;" edge="1" parent="1" source="74" target="76">
                    <mxGeometry relative="1" as="geometry"/>
                </mxCell>
                <mxCell id="78" style="edgeStyle=none;html=0;exitX=0.5;exitY=1;exitDx=0;exitDy=0;fontSize=12;fontColor=#FFFFFF;" edge="1" parent="1" source="74">
                    <mxGeometry relative="1" as="geometry">
                        <mxPoint x="400" y="1920" as="targetPoint"/>
                    </mxGeometry>
                </mxCell>
                <mxCell id="74" value="&lt;font style=&quot;font-size: 12px;&quot;&gt;Payment Info(Credit Card, CVV, Billing Address)&lt;/font&gt;" style="shape=parallelogram;perimeter=parallelogramPerimeter;whiteSpace=wrap;html=1;fixedSize=1;fontSize=18;fontColor=#ffffff;fillColor=#6d8764;strokeColor=#3A5431;" vertex="1" parent="1">
                    <mxGeometry x="480" y="1780" width="120" height="60" as="geometry"/>
                </mxCell>
                <mxCell id="80" style="edgeStyle=none;html=0;fontSize=12;fontColor=#FFFFFF;entryX=1;entryY=0.75;entryDx=0;entryDy=0;" edge="1" parent="1" source="76" target="69">
                    <mxGeometry relative="1" as="geometry">
                        <mxPoint x="540" y="2640" as="targetPoint"/>
                        <Array as="points">
                            <mxPoint x="540" y="2460"/>
                        </Array>
                    </mxGeometry>
                </mxCell>
                <mxCell id="76" value="Order Confirmation Screen" style="whiteSpace=wrap;html=1;fontSize=18;fillColor=#6d8764;strokeColor=#3A5431;fontColor=#ffffff;" vertex="1" parent="1">
                    <mxGeometry x="480" y="1920" width="120" height="60" as="geometry"/>
                </mxCell>
                <mxCell id="79" value="Order Confirmation Email sent to Inbox" style="ellipse;whiteSpace=wrap;html=1;aspect=fixed;fontSize=12;fontColor=#ffffff;fillColor=#6d8764;strokeColor=#3A5431;" vertex="1" parent="1">
                    <mxGeometry x="320" y="1920" width="115" height="115" as="geometry"/>
                </mxCell>
                <mxCell id="82" value="End" style="ellipse;whiteSpace=wrap;html=1;fontSize=12;fillColor=#ffff88;strokeColor=#36393d;fontColor=#000000;" vertex="1" parent="1">
                    <mxGeometry x="-300" y="2600" width="120" height="80" as="geometry"/>
                </mxCell>
            </root>
        </mxGraphModel>
    </diagram>
</mxfile>